<?xml version="1.0" encoding="UTF-8"?>
<svg width="317px" height="97px" viewBox="0 0 317 97" version="1.1" xmlns="http://www.w3.org/2000/svg" xmlns:xlink="http://www.w3.org/1999/xlink">
    <!-- Generator: Sketch 52.5 (67469) - http://www.bohemiancoding.com/sketch -->
    <title>ncbg_logo1a</title>
    <desc>Created with Sketch.</desc>
    <defs>
        <polygon id="path-1" points="0 0.427431001 313.345435 0.427431001 313.345435 96.0092478 266.451206 96.0092478 0 96.0092478"></polygon>
    </defs>
    <g id="Symbols" stroke="none" stroke-width="1" fill="none" fill-rule="evenodd">
        <g id="footer" transform="translate(-274.000000, -3.000000)">
            <g id="ncbg_logo1a">
                <g transform="translate(274.000000, 3.000000)">
                    <path d="M131.333045,12.9471454 L125.643527,6.80309596 C124.728237,5.82727316 123.683291,4.62308937 122.847114,3.64726656 L122.808107,3.66570902 C122.847114,4.75489868 122.847114,5.76977609 122.847114,6.67128666 L122.847114,12.6835268 L121.000054,12.6835268 L121.000054,0.696473865 L122.276295,0.696473865 L127.489489,6.33389823 C128.19436,7.10414191 129.295345,8.30398629 130.037575,9.20820898 L130.076582,9.18976653 C130.037575,8.26710138 130.037575,7.23540879 130.037575,6.37078314 L130.037575,0.696473865 L131.885735,0.696473865 L131.885735,12.9471454 L131.333045,12.9471454" id="Fill-1" fill="#563C5B"></path>
                    <path d="M143.680662,2.03083968 C141.434742,2.03083968 139.114653,3.70259393 139.114653,6.67128666 C139.114653,9.64052181 141.434742,11.3290912 143.680662,11.3290912 C145.887026,11.3290912 148.245572,9.64052181 148.245572,6.67128666 C148.245572,3.70259393 145.887026,2.03083968 143.680662,2.03083968 Z M143.680662,12.9080908 C140.445834,12.9080908 137.248913,10.5588476 137.248913,6.67128666 C137.248913,2.81952582 140.445834,0.453467407 143.680662,0.453467407 C146.914941,0.453467407 150.111861,2.81952582 150.111861,6.67128666 C150.111861,10.5588476 146.914941,12.9080908 143.680662,12.9080908 Z" id="Fill-2" fill="#563C5B"></path>
                    <path d="M158.995553,2.23858851 L157.302322,2.23858851 L157.302322,5.88314294 L158.995553,5.88314294 C160.081154,5.88314294 161.088192,5.31902081 161.088192,4.06059451 C161.088192,2.81952582 160.081154,2.23858851 158.995553,2.23858851 Z M162.839109,12.6835268 L159.014782,7.42525759 L157.302322,7.42525759 L157.302322,12.6835268 L155.475589,12.6835268 L155.475589,0.696473865 L159.318596,0.696473865 C161.032154,0.696473865 162.972612,1.78566352 162.972612,4.06059451 C162.972612,5.65640924 162.020513,6.67128666 160.841515,7.14102682 L164.989435,12.6835268 L162.839109,12.6835268 Z" id="Fill-3" fill="#563C5B"></path>
                    <polyline id="Fill-4" fill="#563C5B" points="172.943003 2.25703096 172.943003 12.6835268 171.097591 12.6835268 171.097591 2.25703096 167.196348 2.25703096 167.196348 0.696473865 176.842598 0.696473865 176.842598 2.25703096 172.943003 2.25703096"></polyline>
                    <polyline id="Fill-5" fill="#563C5B" points="189.646761 12.6835268 189.646761 7.44153034 183.386972 7.44153034 183.386972 12.6835268 181.54101 12.6835268 181.54101 0.696473865 183.386972 0.696473865 183.386972 5.88314294 189.646761 5.88314294 189.646761 0.696473865 191.492723 0.696473865 191.492723 12.6835268 189.646761 12.6835268"></polyline>
                    <path d="M214.40078,2.81952582 C213.809633,2.44471005 212.611406,2.03083968 211.356042,2.03083968 C208.977718,2.03083968 206.465891,3.55234217 206.465891,6.68972911 C206.465891,9.79077357 208.920031,11.3290912 211.356042,11.3290912 C212.801496,11.3290912 213.943135,11.030215 214.705693,10.5794597 L214.325513,12.3255262 C213.562955,12.7209541 212.707549,12.9080908 211.146173,12.9080908 C208.083305,12.9080908 204.60125,10.7855813 204.60125,6.68972911 C204.60125,2.53692233 208.120114,0.453467407 211.146173,0.453467407 C212.821274,0.453467407 213.981593,0.830452872 214.723823,1.24215354 L214.40078,2.81952582" id="Fill-6" fill="#563C5B"></path>
                    <path d="M225.013412,5.20728123 C224.844749,4.81022604 224.65356,4.24827361 224.501378,3.73947884 L224.46347,3.73947884 C224.330516,4.24827361 224.121747,4.81022604 223.948688,5.20728123 L222.750461,8.13746178 L226.213837,8.13746178 L225.013412,5.20728123 Z M228.154844,12.6835268 L226.842343,9.58302475 L222.124153,9.58302475 L220.809454,12.6835268 L219.003049,12.6835268 L224.178334,0.52777965 L224.844749,0.52777965 L230.019485,12.6835268 L228.154844,12.6835268 Z" id="Fill-7" fill="#563C5B"></path>
                    <path d="M238.522447,2.23858851 L236.829217,2.23858851 L236.829217,5.88314294 L238.522447,5.88314294 C239.608049,5.88314294 240.616735,5.31902081 240.616735,4.06059451 C240.616735,2.81952582 239.608049,2.23858851 238.522447,2.23858851 Z M242.366003,12.6835268 L238.543324,7.42525759 L236.829217,7.42525759 L236.829217,12.6835268 L235.002484,12.6835268 L235.002484,0.696473865 L238.84604,0.696473865 C240.560147,0.696473865 242.501154,1.78566352 242.501154,4.06059451 C242.501154,5.65640924 241.547407,6.67128666 240.369508,7.14102682 L244.51578,12.6835268 L242.366003,12.6835268 Z" id="Fill-8" fill="#563C5B"></path>
                    <path d="M254.296631,2.03083968 C252.051809,2.03083968 249.730622,3.70259393 249.730622,6.67128666 C249.730622,9.64052181 252.051809,11.3290912 254.296631,11.3290912 C256.502995,11.3290912 258.86209,9.64052181 258.86209,6.67128666 C258.86209,3.70259393 256.502995,2.03083968 254.296631,2.03083968 Z M254.296631,12.9080908 C251.061802,12.9080908 247.86653,10.5588476 247.86653,6.67128666 C247.86653,2.81952582 251.061802,0.453467407 254.296631,0.453467407 C257.532558,0.453467407 260.72783,2.81952582 260.72783,6.67128666 C260.72783,10.5588476 257.532558,12.9080908 254.296631,12.9080908 Z" id="Fill-9" fill="#563C5B"></path>
                    <polyline id="Fill-10" fill="#563C5B" points="266.092107 12.6835268 266.092107 0.696473865 267.939168 0.696473865 267.939168 11.1251394 273.285315 11.1251394 273.285315 12.6835268 266.092107 12.6835268"></polyline>
                    <polygon id="Fill-11" fill="#563C5B" points="278.268314 12.6835268 280.113726 12.6835268 280.113726 0.696473865 278.268314 0.696473865"></polygon>
                    <path d="M296.573003,12.9471454 L290.881837,6.80309596 C289.969844,5.82727316 288.923799,4.62308937 288.086523,3.64726656 L288.046967,3.66570902 C288.086523,4.75489868 288.086523,5.76977609 288.086523,6.67128666 L288.086523,12.6835268 L286.241111,12.6835268 L286.241111,0.696473865 L287.514055,0.696473865 L292.729447,6.33389823 C293.432671,7.10414191 294.537501,8.30398629 295.278083,9.20820898 L295.31764,9.18976653 C295.278083,8.26710138 295.278083,7.23540879 295.278083,6.37078314 L295.278083,0.696473865 L297.123496,0.696473865 L297.123496,12.9471454 L296.573003,12.9471454" id="Fill-12" fill="#563C5B"></path>
                    <path d="M308.119055,5.20728123 C307.949842,4.81022604 307.758104,4.24827361 307.60812,3.73947884 L307.568563,3.73947884 C307.435061,4.24827361 307.228489,4.81022604 307.054331,5.20728123 L305.856653,8.13746178 L309.320029,8.13746178 L308.119055,5.20728123 Z M311.259938,12.6835268 L309.947986,9.58302475 L305.227598,9.58302475 L303.915097,12.6835268 L302.107043,12.6835268 L307.284527,0.52777965 L307.949842,0.52777965 L313.125678,12.6835268 L311.259938,12.6835268 Z" id="Fill-13" fill="#563C5B"></path>
                    <path d="M126.910428,39.4565463 L124.034354,39.4565463 L124.034354,46.4462365 L126.910428,46.4462365 C129.02834,46.4462365 131.019891,45.3857954 131.019891,42.9524762 C131.019891,40.5782814 129.02834,39.4565463 126.910428,39.4565463 Z M126.121499,31.6548457 L124.034354,31.6548457 L124.034354,36.8968421 L126.121499,36.8968421 C127.764735,36.8968421 129.187114,36.1493803 129.187114,34.3067621 C129.187114,32.4353954 127.764735,31.6548457 126.121499,31.6548457 Z M127.543329,49.003771 L121.000054,49.003771 L121.000054,29.0956839 L126.625842,29.0956839 C129.314024,29.0956839 132.283496,30.8130019 132.283496,34.3067621 C132.283496,35.7745645 131.588513,37.3025761 130.419404,37.8026921 C132.283496,38.332099 134.148137,40.3911448 134.148137,42.9524762 C134.148137,47.0705678 130.672674,49.003771 127.543329,49.003771 Z" id="Fill-14" fill="#563C5B"></path>
                    <path d="M152.635225,31.3109481 C148.906492,31.3109481 145.04975,34.0887072 145.04975,39.019894 C145.04975,43.9489112 148.906492,46.7575885 152.635225,46.7575885 C156.302426,46.7575885 160.222348,43.9489112 160.222348,39.019894 C160.222348,34.0887072 156.302426,31.3109481 152.635225,31.3109481 Z M152.635225,49.380214 C147.263256,49.380214 141.953919,45.4785501 141.953919,39.019894 C141.953919,32.6225321 147.263256,28.6899499 152.635225,28.6899499 C158.01049,28.6899499 163.31873,32.6225321 163.31873,39.019894 C163.31873,45.4785501 158.01049,49.380214 152.635225,49.380214 Z" id="Fill-15" fill="#563C5B"></path>
                    <polyline id="Fill-16" fill="#563C5B" points="178.550662 31.6857639 178.550662 49.003771 175.485047 49.003771 175.485047 31.6857639 169.005501 31.6857639 169.005501 29.0956839 185.029659 29.0956839 185.029659 31.6857639 178.550662 31.6857639"></polyline>
                    <path d="M198.71395,36.5860325 C198.431012,35.9291557 198.113463,34.9923875 197.861841,34.1500012 L197.79866,34.1500012 C197.575607,34.9923875 197.22839,35.9291557 196.943804,36.5860325 L194.953352,41.4532132 L200.70605,41.4532132 L198.71395,36.5860325 Z M203.928792,49.003771 L201.748799,43.8561565 L193.910603,43.8561565 L191.728962,49.003771 L188.725428,49.003771 L197.323435,28.8136228 L198.431012,28.8136228 L207.026821,49.003771 L203.928792,49.003771 Z" id="Fill-17" fill="#563C5B"></path>
                    <path d="M232.152231,49.4425929 L222.700466,39.237949 C221.182492,37.6155554 219.44531,35.6161764 218.054246,33.9937828 L217.989418,34.0268707 C218.054246,35.8347737 218.054246,37.520631 218.054246,39.019894 L218.054246,49.003771 L214.988631,49.003771 L214.988631,29.0956839 L217.105444,29.0956839 L225.766631,38.4573992 C226.93574,39.7364376 228.769066,41.7352742 230.001355,43.2301979 L230.064536,43.2014494 C230.001355,41.6718105 230.001355,39.9544925 230.001355,38.5197781 L230.001355,29.0956839 L233.065322,29.0956839 L233.065322,49.4425929 L232.152231,49.4425929" id="Fill-18" fill="#563C5B"></path>
                    <polygon id="Fill-19" fill="#563C5B" points="242.925286 49.003771 245.990352 49.003771 245.990352 29.0956839 242.925286 29.0956839"></polygon>
                    <path d="M271.338815,32.6225321 C270.358697,31.9965735 268.367146,31.3109481 266.279451,31.3109481 C262.329312,31.3109481 258.157218,33.8397341 258.157218,39.0508123 C258.157218,44.200054 262.235366,46.7575885 266.279451,46.7575885 C268.684146,46.7575885 270.58175,46.2590998 271.845905,45.5094683 L271.213553,48.4103579 C269.947201,49.0672347 268.52592,49.380214 265.933333,49.380214 C260.844851,49.380214 255.060288,45.8533658 255.060288,39.0508123 C255.060288,32.1533343 260.907482,28.6899499 265.933333,28.6899499 C268.714912,28.6899499 270.642184,29.3137388 271.874473,30.0015339 L271.338815,32.6225321" id="Fill-20" fill="#563C5B"></path>
                    <path d="M288.655695,36.5860325 C288.37056,35.9291557 288.055208,34.9923875 287.802487,34.1500012 L287.738208,34.1500012 C287.517352,34.9923875 287.169036,35.9291557 286.885549,36.5860325 L284.893998,41.4532132 L290.645049,41.4532132 L288.655695,36.5860325 Z M293.871087,49.003771 L291.688347,43.8561565 L283.85125,43.8561565 L281.669608,49.003771 L278.668821,49.003771 L287.26518,28.8136228 L288.37056,28.8136228 L296.968017,49.003771 L293.871087,49.003771 Z" id="Fill-21" fill="#563C5B"></path>
                    <polyline id="Fill-22" fill="#563C5B" points="304.930376 49.003771 304.930376 29.0956839 307.995991 29.0956839 307.995991 46.413691 316.877485 46.413691 316.877485 49.003771 304.930376 49.003771"></polyline>
                    <path d="M135.467231,95.9132385 C127.248305,95.9132385 118.743146,90.4895296 118.743146,80.2995312 C118.743146,69.8735778 127.583435,64.6370056 135.180447,64.6370056 C139.384406,64.6370056 142.777459,65.6280163 145.02338,67.0421186 L144.163029,71.005619 C141.917109,69.5909743 138.908081,68.600506 135.705667,68.600506 C129.733211,68.600506 123.426175,72.4674548 123.426175,80.3467222 C123.426175,88.1299803 129.542572,91.9513654 135.754014,91.9513654 C138.572951,91.9513654 140.770525,91.3850735 142.203893,90.3951477 L142.203893,84.1209162 L135.180447,84.1209162 L135.180447,80.4394769 L146.600139,80.4394769 L146.600139,92.6576029 C143.685607,94.9694188 140.006868,95.9132385 135.467231,95.9132385" id="Fill-23" fill="#563C5B"></path>
                    <path d="M169.837832,76.5730706 C169.407657,75.5826023 168.929135,74.1663303 168.547856,72.8916312 L168.451712,72.8916312 C168.117132,74.1663303 167.59301,75.5826023 167.162286,76.5730706 L164.15161,83.9321523 L172.847958,83.9321523 L169.837832,76.5730706 Z M177.722726,95.3491164 L174.424168,87.5636885 L162.5754,87.5636885 L159.27849,95.3491164 L154.738303,95.3491164 L167.735853,64.8268544 L169.407657,64.8268544 L182.404657,95.3491164 L177.722726,95.3491164 Z" id="Fill-24" fill="#563C5B"></path>
                    <path d="M199.950634,69.1174372 L195.698879,69.1174372 L195.698879,78.2692339 L199.950634,78.2692339 C202.674527,78.2692339 205.207231,76.8551316 205.207231,73.6949628 C205.207231,70.5814426 202.674527,69.1174372 199.950634,69.1174372 Z M209.602378,95.3491164 L199.998981,82.1383524 L195.698879,82.1383524 L195.698879,95.3491164 L191.111993,95.3491164 L191.111993,65.2504884 L200.763187,65.2504884 C205.063289,65.2504884 209.93586,67.9870232 209.93586,73.6949628 C209.93586,77.7034845 207.548196,80.2528826 204.585867,81.4299452 L215.001267,95.3491164 L209.602378,95.3491164 Z" id="Fill-25" fill="#563C5B"></path>
                    <path d="M231.61822,69.1174372 L227.6516,69.1174372 L227.6516,91.4799979 L231.61822,91.4799979 C238.497724,91.4799979 244.184496,87.9401315 244.184496,80.2995312 C244.184496,72.6573035 238.497724,69.1174372 231.61822,69.1174372 Z M232.429125,95.3491164 L223.063615,95.3491164 L223.063615,65.2504884 L232.429125,65.2504884 C240.933735,65.2504884 248.914224,70.5814426 248.914224,80.2995312 C248.914224,90.0181622 240.933735,95.3491164 232.429125,95.3491164 Z" id="Fill-26" fill="#563C5B"></path>
                    <polygon id="Fill-27" fill="#563C5B" points="259.059872 65.2504884 275.494976 65.2504884 275.494976 69.1646281 263.695653 69.1646281 263.695653 78.2692339 273.584735 78.2692339 273.584735 82.1855434 263.695653 82.1855434 263.695653 91.4328069 277.169527 91.4328069 277.169527 95.3491164 259.059872 95.3491164"></polygon>
                    <g id="Group-31">
                        <mask id="mask-2" fill="white">
                            <use xlink:href="#path-1"></use>
                        </mask>
                        <g id="Clip-29"></g>
                        <path d="M311.960414,96.0092478 L297.672889,80.5821347 C295.379172,78.1298307 292.751423,75.1112348 290.649444,72.6573035 L290.5533,72.7044945 C290.649444,75.4404869 290.649444,77.9877153 290.649444,80.2528826 L290.649444,95.3491164 L286.013662,95.3491164 L286.013662,65.2504884 L289.217175,65.2504884 L302.307023,79.4018176 C304.07552,81.3377329 306.84721,84.3557863 308.711302,86.6209536 L308.805248,86.5732202 C308.711302,84.2608619 308.711302,81.6669849 308.711302,79.496742 L308.711302,65.2504884 L313.345435,65.2504884 L313.345435,96.0092478 L311.960414,96.0092478" id="Fill-28" fill="#563C5B" mask="url(#mask-2)"></path>
                        <path d="M60.928279,53.1576626 C60.6634714,53.4852874 60.2860381,53.6908665 59.864104,53.7375151 C59.8047695,53.7440242 59.7459844,53.7472787 59.6877487,53.7472787 C58.8790416,53.7472787 58.2010901,53.1484414 58.1104402,52.3548734 C58.0642912,51.9382909 58.1840589,51.5287599 58.4488666,51.2027624 C58.7136742,50.8751377 59.0916568,50.6690161 59.5130416,50.6239948 C60.3843795,50.5165946 61.1689133,51.1544866 61.2645078,52.0066365 C61.312305,52.4215917 61.1925373,52.8300378 60.928279,53.1576626 Z M56.9951716,41.6305862 C56.1936066,41.2823493 55.8271612,40.3558871 56.1776742,39.5655737 C56.5199463,38.7974997 57.4835823,38.418887 58.2681161,38.7589876 C59.0685823,39.1039699 59.4355771,40.0298896 59.0856135,40.8212879 C58.8323432,41.3924616 58.2615234,41.7613106 57.6308198,41.7613106 C57.4116118,41.7613106 57.1973484,41.7173742 56.9951716,41.6305862 Z M56.828156,49.622678 C56.4820381,50.0506515 55.9870347,50.3202368 55.4354437,50.3809884 C55.3574298,50.3902096 55.2799653,50.394549 55.2035997,50.394549 C54.1432704,50.394549 53.256,49.608575 53.1384298,48.5682036 C53.0763484,48.0236088 53.2334749,47.4871503 53.5801421,47.0591769 C53.9268094,46.630661 54.4218128,46.3610757 54.9739532,46.3003241 C56.1337227,46.16743 57.1435078,46.9973404 57.2704177,48.1131089 C57.3324991,48.6577037 57.175922,49.1941622 56.828156,49.622678 Z M52.5610173,55.8621943 C52.201714,56.1236432 51.7753847,56.262504 51.3298267,56.262504 C50.6705546,56.262504 50.0442461,55.9495247 49.6541768,55.4266269 C49.3245407,54.9850929 49.1888406,54.4432102 49.2723484,53.900785 C49.3553068,53.3578175 49.6475841,52.8810258 50.0953397,52.5561131 C50.9875546,51.9079151 52.3495009,52.1156639 53.003279,52.9922229 C53.6828787,53.9029547 53.4845477,55.190672 52.5610173,55.8621943 Z M51.7720884,60.1994256 C51.7083588,60.6122111 51.4847556,60.9761784 51.1424835,61.2240667 C50.8683362,61.424764 50.5430953,61.529452 50.201922,61.529452 C49.6997764,61.529452 49.2218042,61.2918698 48.9245823,60.8921025 C48.6729601,60.5552565 48.5696742,60.1413861 48.6328544,59.7280582 C48.6965841,59.3136454 48.9196378,58.9491357 49.2613605,58.7012474 C49.9431577,58.2060133 50.9815113,58.363859 51.4809099,59.033754 C51.7325321,59.3711424 51.8363674,59.7855552 51.7720884,60.1994256 Z M48.431227,50.4694037 C48.3339844,50.4807946 48.2378406,50.4862188 48.1422461,50.4862188 C46.8324922,50.4862188 45.7359029,49.5158203 45.5903137,48.228103 C45.4326378,46.837325 46.4517626,45.5783563 47.8604073,45.4232227 C49.2987192,45.2583255 50.5463917,46.2845938 50.70187,47.6650657 C50.8589965,49.0563862 49.8404211,50.3142701 48.431227,50.4694037 Z M46.1754177,54.6070225 C45.8435841,55.3544844 45.0953102,55.8372427 44.2690225,55.8372427 C43.9822392,55.8372427 43.7014991,55.7797457 43.4366915,55.665294 C42.9279532,55.4461542 42.5356863,55.0436748 42.3335095,54.5332527 C42.1313328,54.0222883 42.1417712,53.4646752 42.364825,52.9618471 C42.6961092,52.2143853 43.444383,51.7316269 44.2706707,51.7316269 C44.5580035,51.7316269 44.8387435,51.7896664 45.1035511,51.9035757 C46.1528925,52.3575855 46.6336118,53.5704481 46.1754177,54.6070225 Z M41.0858371,49.6058629 C40.0260572,49.6058629 39.1387868,48.8204313 39.0206672,47.7795175 C38.8943068,46.6566974 39.7178475,45.6385655 40.8556412,45.511638 C42.0258492,45.373862 43.0273934,46.2086543 43.1532045,47.3255076 C43.2806638,48.4499549 42.4576724,49.467002 41.3182305,49.5923022 C41.2402166,49.6020659 41.1622028,49.6058629 41.0858371,49.6058629 Z M40.1139601,56.3270526 C39.8612392,56.8976839 39.2909688,57.2665329 38.6602652,57.2665329 C38.4410572,57.2665329 38.2267938,57.2220541 38.0240676,57.1336388 C37.6367452,56.9665719 37.3378752,56.6595592 37.1829463,56.2706404 C37.0274679,55.8806367 37.0362582,55.4542906 37.2060208,55.0702536 C37.5466447,54.302722 38.5102808,53.926279 39.2959133,54.2620402 C39.6848839,54.430192 39.9837539,54.737747 40.1386828,55.1277507 C40.2930624,55.5182968 40.2837227,55.9430156 40.1139601,56.3270526 Z M36.6005893,45.2800225 C35.7929809,45.2800225 35.1161282,44.6817275 35.0260277,43.8881596 C34.9787799,43.4710347 35.0985477,43.0615037 35.3633553,42.7355062 C35.6281629,42.4078814 36.0061456,42.2017599 36.4280797,42.1567386 C37.302714,42.0515081 38.0839515,42.6877728 38.1806447,43.5382954 C38.2273432,43.9554203 38.1075754,44.3638664 37.8433172,44.6909488 C37.5785095,45.0185735 37.1999775,45.2241527 36.7785927,45.2697164 C36.7187088,45.2767679 36.6599237,45.2800225 36.6005893,45.2800225 Z M42.9065269,41.407107 C42.9894853,40.8646819 43.2817626,40.3878902 43.7284194,40.0624351 C44.6211837,39.4131523 45.9809324,39.6198162 46.6369081,40.4969177 C46.9659948,40.9384517 47.1011456,41.4808769 47.0176378,42.0227596 C46.93413,42.5651847 46.6418527,43.0430612 46.1940971,43.3674315 C45.8347938,43.6288804 45.4090139,43.7677412 44.9634558,43.7677412 C44.3047331,43.7677412 43.6784246,43.4547619 43.2883553,42.9318641 C42.9581698,42.4897876 42.8230191,41.9484473 42.9065269,41.407107 Z M44.5184471,35.7257462 C44.5816274,35.3113334 44.8052305,34.9473662 45.1469532,34.7000203 C45.8276516,34.2037013 46.8660052,34.3620895 47.3659532,35.0314421 C47.8845806,35.7262887 47.7334974,36.7097054 47.0297244,37.2222972 C46.7544783,37.4219096 46.4292374,37.5282249 46.0880641,37.5282249 C45.5859185,37.5282249 45.1073969,37.2901003 44.8096256,36.8908754 C44.5585529,36.553487 44.4547175,36.1390742 44.5184471,35.7257462 Z M50.116766,41.2866887 C50.4475009,40.538142 51.1952253,40.0553836 52.0220624,40.0553836 C52.3093951,40.0553836 52.5895858,40.1134231 52.8549428,40.2284172 C53.3636811,40.447557 53.755948,40.8500364 53.9581248,41.3610009 C54.1603016,41.8703381 54.1493137,42.4295784 53.92626,42.9318641 C53.5955251,43.6782411 52.8478007,44.1609994 52.0209636,44.1609994 C51.7336308,44.1609994 51.4534402,44.1029599 51.1886326,43.9890507 C50.1387418,43.5361257 49.6580225,42.3232631 50.116766,41.2866887 Z M87.8430624,54.7241864 C86.355305,53.39416 84.6763588,52.3885038 82.8600641,51.6052419 C80.8679636,50.6858313 78.7709289,50.0609575 76.6370849,49.7273661 C73.8170485,49.1404621 70.8514229,48.7672736 67.8857972,48.340385 C67.4858388,48.2747516 67.1660919,48.1689787 67.1660919,47.9628571 C67.1660919,47.7784326 67.4155165,47.6623536 67.7533934,47.6037717 C70.7591248,47.1692892 73.7692513,46.7933886 76.6299428,46.1972634 C78.7720277,45.8636719 80.8751057,45.2366284 82.8732496,44.3134209 C84.6785563,43.5328711 86.3487123,42.5315543 87.8298769,41.2102067 C88.3952028,40.7491454 88.9434974,40.2582506 89.4731127,39.7353528 C91.1795286,38.0511228 92.5184003,36.1971137 93.5155494,34.2367893 C97.9074003,26.689486 96.4020624,19.9330386 93.7067383,14.9297092 C92.7612322,13.1776761 91.6723345,11.6399008 90.6383761,10.3592351 C90.0774454,9.7978251 89.4258648,9.8238615 88.9858007,10.2100682 C88.7858215,10.3858139 88.6666031,10.689572 88.6193553,11.0817454 C88.5287054,11.8443951 88.311695,12.6157236 87.7172513,13.2026276 C86.5113328,14.3927084 84.5571404,14.3927084 83.3523206,13.2026276 C82.1469515,12.0125469 82.1469515,10.0831407 83.3512218,8.89305998 C83.9462149,8.30615599 84.7263536,8.09081322 85.5004489,8.00131307 C85.8976603,7.95629179 86.2053206,7.83695826 86.3833241,7.63897309 C86.7744922,7.20503298 86.7992149,6.56225921 86.3822253,6.15164338 C84.9889636,5.02936579 83.5061508,4.00092775 81.8217106,3.09616263 C76.6310416,0.308097473 69.5268354,-1.29476878 61.5826066,3.43789046 C59.7619168,4.38279504 58.0428648,5.61518493 56.4787418,7.15946927 C55.9540711,7.67748527 55.4601664,8.215571 54.9948302,8.76938705 C53.6482669,10.2377319 52.6296915,11.8964679 51.835818,13.6897254 C50.9045962,15.6560165 50.271695,17.7259108 49.933818,19.8321476 C49.3377262,22.6240097 48.9591941,25.5612418 48.5251733,28.4968466 C48.4603449,28.7816197 48.3521144,29.1076172 48.137851,29.1076172 C47.9241369,29.1076172 47.8005234,28.7837894 47.7505286,28.3748009 C47.3236499,25.4923538 46.946766,22.592549 46.3572669,19.8321476 C46.0199393,17.7259108 45.3870381,15.6571013 44.4552669,13.6897254 C43.6624922,11.8964679 42.6439168,10.2377319 41.2973536,8.7683022 C40.8320173,8.215571 40.338662,7.67748527 39.8128925,7.15946927 C38.2487695,5.61518493 36.5297175,4.38279504 34.7084783,3.43789046 C26.7658977,-1.29476878 19.6605927,0.308097473 14.4704731,3.09616263 C12.7854835,4.00092775 11.3026707,5.03045064 10.0593934,6.00844315 C9.49187002,6.56225921 9.51714211,7.20503298 9.90831023,7.63897309 C10.0868631,7.83695826 10.3945234,7.95629179 10.7917348,8.00131307 C11.564182,8.09081322 12.3454194,8.30615599 12.9393137,8.89305998 C14.1452322,10.0831407 14.1452322,12.0125469 12.9393137,13.2026276 C11.7339445,14.3927084 9.77920277,14.3927084 8.57438302,13.2026276 C7.98103813,12.6157236 7.76292894,11.8443951 7.67227903,11.0817454 C7.62558059,10.689572 7.50581282,10.3858139 7.30528423,10.2100682 C6.8652201,9.8238615 6.2147383,9.7978251 5.79829809,10.2100682 C4.61984922,11.6399008 3.52985269,13.1776761 2.58544541,14.9297092 C-0.11097747,19.9330386 -1.61521664,26.689486 2.77663432,34.2367893 C3.77378336,36.1971137 5.11210572,38.0511228 6.81852166,39.7353528 C7.34758752,40.2582506 7.89643154,40.7491454 8.46230676,41.2102067 C9.94182322,42.5315543 11.613078,43.5328711 13.4200329,44.3134209 C15.4165286,45.2366284 17.5196066,45.8636719 19.6616915,46.1972634 C22.4701906,46.7819976 25.4248284,47.1546437 28.377818,47.579905 C28.6448232,47.6292657 28.9744593,47.7507689 28.9744593,47.9628571 C28.9744593,48.1727757 28.643175,48.2801758 28.23113,48.3447244 C25.4226308,48.7689009 22.4663449,49.1426318 19.6545494,49.7273661 C17.520156,50.0609575 15.4242201,50.6858313 13.4315702,51.6052419 C11.615825,52.3885038 9.9357799,53.39416 8.44857192,54.7241864 C7.88819064,55.1836205 7.34319237,55.6707182 6.81852166,56.1892766 C5.25439861,57.733561 4.00727556,59.4313516 3.04913345,61.2294909 C-1.7437747,69.0702462 -0.121415945,76.0859728 2.7030156,81.2097205 C3.61995321,82.8738808 4.66270191,84.3373438 5.65325823,85.5648519 C6.21363951,86.1257195 6.86412132,86.1007679 7.30418544,85.7140188 C7.50581282,85.5377307 7.62558059,85.2350574 7.67172964,84.8428841 C7.76237955,84.0786071 7.98048873,83.3078209 8.57383362,82.7220018 C9.77920277,81.5319211 11.7333951,81.5319211 12.9393137,82.7220018 C14.1446828,83.9115401 14.1441334,85.8414887 12.9393137,87.0315695 C12.3454194,87.6173886 11.564182,87.8332738 10.7911854,87.9227739 C10.3945234,87.9683377 10.0863137,88.0865863 9.90776083,88.2840291 C9.51714211,88.719054 9.49187002,89.3612854 9.90776083,89.7729861 C11.3559619,90.936488 12.914591,92.0110321 14.6891317,92.9450882 C19.7567366,95.6056835 26.5994315,97.0919283 34.2442409,92.7563243 C36.2297487,91.7712802 38.1064766,90.450475 39.8128925,88.7651602 C40.3419584,88.2422623 40.8391594,87.7009221 41.3072426,87.1427666 C42.645565,85.6809309 43.6591958,84.0325009 44.449773,82.2473798 C45.3853899,80.2762069 46.0204887,78.1992611 46.3583657,76.0848879 C46.946766,73.3282834 47.3236499,70.4290211 47.7505286,67.5308437 C47.799974,67.1413824 47.9241369,66.8153849 48.137851,66.8153849 C48.3521144,66.8153849 48.4592461,67.1435521 48.5251733,67.5487437 C48.9580953,70.3590483 49.3366274,73.2941106 49.933818,76.0848879 C50.271695,78.1992611 50.9067938,80.2762069 51.8418614,82.2484647 C52.6324385,84.0303312 53.6460693,85.6809309 54.9843917,87.1427666 C55.4530243,87.7009221 55.9502253,88.2422623 56.4787418,88.7651602 C58.1846083,90.450475 60.062435,91.7712802 62.0479428,92.7563243 C69.6927522,97.0919283 76.5343484,95.6056835 81.6025026,92.9450882 C83.3781421,92.0110321 84.9356724,90.936488 86.2333397,89.9140166 C86.7992149,89.3623702 86.7744922,88.719054 86.3833241,88.2840291 C86.2064194,88.0865863 85.8976603,87.9683377 85.5004489,87.9216891 C84.7274523,87.8332738 83.9462149,87.6173886 83.3523206,87.0315695 C82.1480503,85.8414887 82.1480503,83.9115401 83.3523206,82.7220018 C84.5571404,81.5319211 86.5124315,81.5319211 87.7183501,82.720917 C88.311695,83.3078209 88.5298042,84.0786071 88.6204541,84.8423416 C88.6666031,85.2350574 88.7869203,85.5377307 88.9858007,85.7140188 C89.4269636,86.1007679 90.0779948,86.1257195 90.4949844,85.7140188 C91.6300312,84.3373438 92.6727799,82.8738808 93.5886187,81.2097205 C96.4125009,76.0859728 98.035409,69.0702462 93.2419515,61.2284061 C92.2849081,59.4313516 91.0372357,57.733561 89.4731127,56.1892766 C88.9473432,55.6707182 88.4034437,55.1836205 87.8430624,54.7241864 Z" id="Fill-30" fill="#00A1B3" mask="url(#mask-2)"></path>
                    </g>
                </g>
            </g>
        </g>
    </g>
</svg>